<svg width="49" height="49" viewBox="0 0 49 49" fill="none" xmlns="http://www.w3.org/2000/svg">
<path d="M24.4768 0.553941C19.8335 0.549453 15.2932 1.95162 11.4299 4.58313C7.56661 7.21464 4.55391 10.9573 2.77277 15.3378C0.991626 19.7184 0.522048 24.54 1.42341 29.1931C2.32477 33.8461 4.55659 38.1216 7.83664 41.4787C11.1167 44.8359 15.2976 47.1241 19.8508 48.0539C24.404 48.9837 29.1248 48.5133 33.4164 46.7023C37.708 44.8912 41.3775 41.8208 43.961 37.8794C46.5445 33.938 47.9259 29.3025 47.9305 24.5592C47.9289 18.2011 45.4589 12.1032 41.0621 7.60303C36.6654 3.10287 30.7009 0.567844 24.4768 0.553941ZM27.1725 33.9027C24.8249 36.935 21.4129 38.9132 17.6607 39.4173C17.6607 39.4173 20.3946 38.3668 23.0149 33.9931C25.5042 29.3559 25.7166 25.879 28.0585 22.8809C32.0118 17.813 37.097 19.02 37.097 19.02C36.5153 17.1219 34.7902 15.948 32.3393 16.0598C31.5444 13.4164 28.0977 12.4345 25.6311 13.7385C23.8067 14.7303 21.8457 16.1093 19.6527 16.0625C19.4075 16.0654 19.1623 16.0536 18.9185 16.027C17.5529 15.8153 16.2921 15.1549 15.3268 14.1458C15.2682 15.1588 15.5073 16.1665 16.0133 17.0397C16.5193 17.9129 17.2692 18.6117 18.1667 19.0465C18.9177 19.3957 19.7398 19.5559 20.5639 19.5134C21.3881 19.471 22.1903 19.2273 22.9031 18.8027C21.1464 23.5197 17.9927 27.5592 13.8815 30.3581C9.25453 28.009 6.20978 23.744 5.58332 17.8669C7.14291 13.3273 10.2253 9.49824 14.2842 7.05816C18.3431 4.61808 23.1166 3.72458 27.7586 4.53601C32.4006 5.34743 36.6115 7.81138 39.6451 11.4912C42.6787 15.1711 44.3391 19.8292 44.332 24.6402C44.3318 24.8687 44.3316 25.0922 44.3314 25.3158C42.4194 28.1135 39.8446 30.3708 36.8474 31.8767C33.8502 33.3827 30.5283 34.0883 27.192 33.9276" fill="#FA5300"/>
</svg>
